<?xml version="1.0" standalone="no"?>
<!DOCTYPE svg PUBLIC "-//W3C//DTD SVG 20010904//EN"
 "http://www.w3.org/TR/2001/REC-SVG-20010904/DTD/svg10.dtd">
<svg version="1.0" xmlns="http://www.w3.org/2000/svg"
 width="1259.000000pt" height="1280.000000pt" viewBox="0 0 1259.000000 1280.000000"
 preserveAspectRatio="xMidYMid meet">
<metadata>
Created by potrace 1.15, written by Peter Selinger 2001-2017
</metadata>
<g transform="translate(0.000000,1280.000000) scale(0.100000,-0.100000)"
fill="#000000" stroke="none">
<path d="M6065 12789 c-301 -31 -655 -153 -910 -314 -712 -448 -1096 -1284
-970 -2109 65 -425 269 -839 565 -1149 168 -176 346 -307 575 -422 518 -262
1073 -302 1624 -119 777 259 1328 937 1431 1761 15 114 14 373 0 488 -59 474
-270 913 -600 1246 -176 178 -342 296 -575 410 -357 174 -760 247 -1140 208z"/>
<path d="M4283 8380 c-87 -6 -113 -13 -175 -42 -40 -19 -97 -57 -125 -84 -29
-27 -917 -1079 -1973 -2339 -1549 -1847 -1927 -2304 -1956 -2361 -70 -140 -70
-287 0 -430 30 -59 53 -89 124 -153 156 -143 486 -413 534 -437 172 -87 379
-66 526 53 33 27 2346 2771 2452 2910 14 18 28 32 32 33 4 0 9 -1113 10 -2472
l3 -2473 27 -80 c87 -256 292 -437 553 -490 72 -14 271 -15 2000 -13 2133 4
1945 -3 2098 71 190 91 324 249 389 457 l23 75 5 2484 5 2483 1237 -1475 c681
-811 1257 -1491 1280 -1510 147 -119 354 -140 526 -53 49 25 464 366 565 464
111 108 165 271 140 419 -25 144 59 39 -2003 2498 -1056 1260 -1944 2312
-1973 2339 -28 27 -85 65 -125 84 -67 32 -82 35 -210 43 -166 10 -3845 9
-3989 -1z"/>
</g>
</svg>
